<?xml version="1.0" standalone="no"?>
<!DOCTYPE svg PUBLIC "-//W3C//DTD SVG 20010904//EN"
 "http://www.w3.org/TR/2001/REC-SVG-20010904/DTD/svg10.dtd">
<svg version="1.0" xmlns="http://www.w3.org/2000/svg"
 width="512.000000pt" height="512.000000pt" viewBox="0 0 512.000000 512.000000"
 preserveAspectRatio="xMidYMid meet">

<g transform="translate(0.000000,512.000000) scale(0.100000,-0.100000)"
fill="#000000" stroke="none">
<path d="M2505 5105 c-16 -9 -90 -75 -163 -148 -145 -145 -164 -176 -142 -242
27 -83 134 -114 199 -59 l31 26 0 -97 c0 -112 15 -154 65 -185 40 -25 91 -26
128 -1 53 34 61 57 65 173 l4 108 30 -25 c65 -55 174 -21 197 62 19 67 6 89
-128 226 -69 71 -138 137 -152 148 -38 27 -98 33 -134 14z"/>
<path d="M806 4400 c-41 -13 -74 -48 -86 -89 -5 -20 -10 -117 -10 -217 0 -171
1 -183 23 -215 66 -99 199 -78 228 37 l11 44 74 -69 c77 -72 111 -88 168 -77
38 7 82 49 91 89 14 55 -3 93 -75 170 l-70 75 35 6 c47 9 92 50 106 96 10 32
9 44 -7 76 -37 75 -51 79 -267 81 -106 1 -205 -2 -221 -7z"/>
<path d="M3890 4393 c-40 -21 -80 -75 -80 -110 0 -56 55 -117 116 -129 l34 -6
-70 -75 c-94 -100 -105 -166 -39 -229 26 -25 38 -29 84 -29 l55 0 78 78 79 79
7 -40 c8 -52 47 -99 96 -113 32 -10 44 -9 76 7 76 38 79 49 79 283 0 181 -2
210 -18 234 -38 58 -54 62 -267 65 -171 2 -199 1 -230 -15z"/>
<path d="M2370 4239 c-182 -21 -401 -84 -554 -161 -446 -223 -780 -639 -900
-1123 -25 -103 -46 -281 -46 -398 1 -628 355 -1210 910 -1495 240 -124 448
-178 720 -189 470 -18 920 160 1254 495 676 680 657 1767 -41 2422 -365 342
-852 505 -1343 449z m1178 -643 c102 -98 196 -216 261 -331 63 -109 63 -110
-2 -129 -50 -14 -65 -27 -144 -111 -48 -52 -105 -123 -125 -157 -77 -131 -66
-123 -223 -154 -77 -15 -156 -34 -175 -43 -28 -13 -66 -62 -197 -256 -90 -132
-192 -277 -227 -323 l-63 -82 -6 47 c-4 27 -11 117 -17 202 -14 202 -24 220
-180 336 -50 37 -90 70 -90 74 0 4 19 36 43 71 45 69 210 211 321 276 32 19
67 45 77 57 47 56 62 177 46 373 l-8 100 178 38 c98 20 197 44 220 52 44 16
75 54 88 106 l7 28 61 -43 c33 -23 103 -82 155 -131z m-1942 -259 l62 -48 -37
-87 c-21 -48 -55 -135 -76 -195 l-38 -107 -76 -54 c-90 -63 -145 -120 -159
-167 -6 -19 -13 -72 -16 -119 -9 -136 -42 -290 -68 -317 -12 -13 -25 -23 -29
-23 -9 0 -36 154 -44 255 -9 108 10 297 41 425 50 202 133 374 257 533 l29 38
47 -43 c25 -24 74 -65 107 -91z"/>
<path d="M330 2923 c-39 -7 -316 -289 -325 -330 -14 -69 0 -90 154 -244 156
-156 175 -167 244 -148 83 23 117 132 61 198 l-26 31 97 0 c112 0 154 15 185
65 26 41 26 89 0 130 -31 50 -73 65 -185 65 l-97 0 26 31 c56 67 22 175 -62
199 -20 5 -39 9 -42 9 -3 -1 -16 -4 -30 -6z"/>
<path d="M4713 2919 c-79 -23 -112 -133 -58 -197 l25 -30 -108 -4 c-116 -4
-139 -12 -173 -65 -25 -37 -24 -88 1 -128 31 -50 73 -65 185 -65 l97 0 -26
-31 c-56 -66 -22 -175 61 -198 68 -19 89 -7 235 137 152 149 173 181 163 245
-7 36 -24 59 -134 170 -69 71 -137 137 -151 147 -33 23 -78 31 -117 19z"/>
<path d="M790 1292 c-19 -9 -45 -33 -58 -52 -23 -34 -23 -39 -20 -235 5 -295
-1 -290 299 -290 234 0 245 3 283 79 16 32 17 44 7 76 -14 49 -61 88 -113 96
l-40 7 79 79 78 78 0 55 c0 46 -4 58 -29 84 -32 34 -77 47 -125 36 -18 -4 -61
-35 -105 -76 l-74 -69 -10 43 c-12 47 -41 80 -85 96 -38 15 -46 14 -87 -7z"/>
<path d="M3890 1303 c-31 -12 -70 -58 -76 -89 -11 -57 5 -91 77 -168 l69 -74
-34 -6 c-61 -12 -116 -73 -116 -128 0 -33 35 -85 72 -108 31 -19 47 -21 233
-18 295 4 290 -1 290 299 0 234 -3 245 -79 283 -32 16 -44 17 -76 7 -49 -14
-88 -61 -96 -113 l-7 -40 -77 77 c-70 69 -82 78 -121 81 -24 2 -51 1 -59 -3z"/>
<path d="M2495 720 c-51 -34 -65 -72 -65 -183 l0 -99 -31 26 c-40 34 -113 36
-154 4 -38 -29 -57 -80 -49 -126 5 -31 32 -62 153 -183 211 -212 211 -212 422
0 156 156 167 175 148 244 -23 83 -132 117 -197 62 l-30 -25 -4 108 c-2 80 -8
113 -20 131 -42 60 -117 78 -173 41z"/>
</g>
</svg>
