<?xml version="1.0" encoding="UTF-8" standalone="no"?>
<!-- Created with Inkscape (http://www.inkscape.org/) -->
<svg xmlns:dc="http://purl.org/dc/elements/1.1/" xmlns:cc="http://creativecommons.org/ns#" xmlns:rdf="http://www.w3.org/1999/02/22-rdf-syntax-ns#" xmlns:svg="http://www.w3.org/2000/svg" xmlns="http://www.w3.org/2000/svg" xmlns:sodipodi="http://sodipodi.sourceforge.net/DTD/sodipodi-0.dtd" xmlns:inkscape="http://www.inkscape.org/namespaces/inkscape" width="1000" height="600" viewBox="0 0 1000 600.00001" id="svg2" version="1.1" inkscape:version="0.91 r13725" sodipodi:docname="World Flag Simplified.svg" inkscape:export-filename="C:\Users\Philip\Desktop\World Flag.png" inkscape:export-xdpi="180" inkscape:export-ydpi="180">
  <defs id="defs4"/>
  <sodipodi:namedview id="base" pagecolor="#ffffff" bordercolor="#666666" borderopacity="1.0" inkscape:pageopacity="0.0" inkscape:pageshadow="2" inkscape:zoom="1.085" inkscape:cx="500" inkscape:cy="300" inkscape:document-units="px" inkscape:current-layer="layer1" showgrid="false" inkscape:window-width="1440" inkscape:window-height="848" inkscape:window-x="-8" inkscape:window-y="-8" inkscape:window-maximized="1" units="px" fit-margin-top="0" fit-margin-left="0" fit-margin-right="0" fit-margin-bottom="0">
    <inkscape:grid type="xygrid" id="grid4149" originx="0" originy="0"/>
  </sodipodi:namedview>
  <metadata id="metadata7">
    <rdf:RDF>
      <cc:Work rdf:about="">
        <dc:format>image/svg+xml</dc:format>
        <dc:type rdf:resource="http://purl.org/dc/dcmitype/StillImage"/>
        <dc:title/>
      </cc:Work>
    </rdf:RDF>
  </metadata>
  <g inkscape:label="Layer 1" inkscape:groupmode="layer" id="layer1" transform="translate(0,-452.36218)">
    <g id="g3388">
      <rect y="452.36218" x="0" height="600" width="1000" id="rect4145" style="opacity:1;fill:#0000cc;fill-opacity:1;stroke:none;stroke-width:0;stroke-linecap:butt;stroke-linejoin:miter;stroke-miterlimit:4;stroke-dasharray:none;stroke-dashoffset:0;stroke-opacity:1"/>
      <path d="m 309.75,752.3621 380.5,0 M 499.99015,942.3511 A 178.04999,214.77858 0 0 0 595,752.36206 178.04999,214.77858 0 0 0 499.99016,562.37302 M 634.3167,618.01704 A 144.76337,62.75 0 0 1 500,657.36206 144.76337,62.75 0 0 1 365.6833,618.01705 M 500.00985,942.3511 A 178.04999,214.77858 0 0 1 405,752.36206 178.04999,214.77858 0 0 1 500.00984,562.37302 m -0.01,-0.26092 0,380.5 M 634.3167,886.70708 A 144.76337,62.75 0 0 0 500,847.36206 144.76337,62.75 0 0 0 365.6833,886.70707 M 690,752.36218 a 190,190 0 0 1 -190,190 190,190 0 0 1 -190,-190 190,190 0 0 1 190,-190 190,190 0 0 1 190,190 z" style="fill:none;fill-rule:evenodd;stroke:#ffffff;stroke-width:20;stroke-linecap:butt;stroke-linejoin:miter;stroke-miterlimit:4;stroke-dasharray:none;stroke-opacity:1" id="path4174"/>
    </g>
  </g>
</svg>