<svg xmlns="http://www.w3.org/2000/svg" xmlns:xlink="http://www.w3.org/1999/xlink" width="260" height="210" viewBox="0 0 260 210">
    <defs>
        <style>
            .cls-1 {
            fill: none;
            }

            .cls-2 {
            fill: #009a49;
            }

            .cls-3 {
            fill: #fff;
            }

            .cls-4 {
            fill: #ff7900;
            }

            .cls-5 {
            fill: #002b7f;
            }

            .cls-6 {
            fill: #fcd116;
            }

            .cls-7 {
            fill: #ce1126;
            }

            .cls-8 {
            fill: #0d5eaf;
            }

            .cls-9 {
            fill: #060;
            }

            .cls-10 {
            fill: red;
            }

            .cls-11 {
            fill: #303030;
            }

            .cls-12 {
            fill: #7f7f7f;
            }

            .cls-13 {
            fill: #dcdcdc;
            }

            .cls-14 {
            fill: #85adcc;
            }

            .cls-15 {
            fill: #ffb80c;
            }

            .cls-16 {
            fill: #1e1e1e;
            }

            .cls-17 {
            fill: #ef2b2d;
            }

            .cls-18 {
            fill: #002868;
            }

            .cls-19 {
            fill: #436f4d;
            }

            .cls-20 {
            fill: #cd2a3e;
            }

            .cls-21 {
            fill: #dc143c;
            }

            .cls-22 {
            fill: #9e3039;
            }

            .cls-23 {
            fill: #009b3a;
            }

            .cls-24 {
            fill: #fedf00;
            }

            .cls-25 {
            fill: #002776;
            }

            .cls-26 {
            clip-path: url(#clip-path);
            }

            .cls-27 {
            fill: #c60c30;
            }

            .cls-28 {
            fill: #003478;
            }

            .cls-29 {
            fill: #003580;
            }

            .cls-30 {
            fill: #c1272d;
            }

            .cls-31 {
            fill: #006a44;
            }

            .cls-32 {
            fill: #fdb913;
            }

            .cls-33 {
            fill: #01411c;
            }

            .cls-34 {
            fill: #003897;
            }

            .cls-35 {
            fill: #d72828;
            }

            .cls-36 {
            fill: #0072ce;
            }

            .cls-37 {
            fill: #006a4e;
            }

            .cls-38 {
            fill: #f42a41;
            }

            .cls-39 {
            fill: #ed2939;
            }

            .cls-40 {
            fill: #002395;
            }

            .cls-41 {
            fill: #ee1c25;
            }

            .cls-42 {
            fill: #0b4ea2;
            }

            .cls-43 {
            fill: #e30a17;
            }

            .cls-44 {
            fill: #0038a8;
            }

            .cls-45 {
            fill: #c00;
            }

            .cls-46 {
            fill: #006;
            }

            .cls-47 {
            fill: #fc0;
            }

            .cls-48 {
            fill: #171796;
            }

            .cls-49 {
            fill: #0093dd;
            }

            .cls-50 {
            fill: #a51931;
            }

            .cls-51 {
            fill: #f4f5f8;
            }

            .cls-52 {
            fill: #2d2a4a;
            }

            .cls-53 {
            fill: #005bbb;
            }

            .cls-54 {
            fill: #ffd500;
            }

            .cls-55 {
            fill: #bc002d;
            }

            .cls-56 {
            fill: #de2910;
            }

            .cls-57 {
            fill: #ffde00;
            }

            .cls-58 {
            fill: #0038b8;
            }

            .cls-59 {
            opacity: 0;
            }

            .cls-60 {
            fill: #da251d;
            }

            .cls-61 {
            fill: #ff0;
            }
        </style>
        <clipPath id="clip-path">
            <circle class="cls-1" cx="227" cy="157.5" r="2.25"/>
        </clipPath>
    </defs>
    <g id="Layer_1" data-name="Layer 1">
        <path class="cls-2" d="M37,134h5.3v9H37Z"/>
        <path class="cls-3" d="M42.3,134h5.3v9H42.3Z"/>
        <path class="cls-4" d="M47.7,134H53v9H47.7Z"/>
        <path class="cls-5" d="M89,153h5.3v9H89Z"/>
        <path class="cls-6" d="M94.3,153h5.4v9H94.3Z"/>
        <path class="cls-7" d="M99.7,153H105v9H99.7Z"/>
        <path class="cls-2" d="M193,134h5.3v9H193Z"/>
        <path class="cls-3" d="M198.3,134h5.3v9h-5.3Z"/>
        <path class="cls-7" d="M203.7,134H209v9h-5.3Z"/>
        <path class="cls-3" d="M37,153H53v3H37Z"/>
        <path class="cls-5" d="M37,156H53v3H37Z"/>
        <path class="cls-7" d="M37,159H53v3H37Z"/>
        <path class="cls-3" d="M63,134H79v3H63Z"/>
        <path class="cls-2" d="M63,137H79v3H63Z"/>
        <path class="cls-7" d="M63,140H79v3H63Z"/>
        <path d="M115,134h16v3H115Z"/>
        <path class="cls-7" d="M115,137h16v3H115Z"/>
        <path class="cls-6" d="M115,140h16v3H115Z"/>
        <path class="cls-3" d="M141,134h16v9H141Z"/>
        <path class="cls-8" d="M146,134h11v1H146Zm0,2h11v1H146Zm0,2h11v1H146Zm-5,2h16v1H141Zm0,2h16v1H141Zm0-8h2v2h-2Zm3,0h2v2h-2Zm-3,3h2v2h-2Zm3,0h2v2h-2Z"/>
        <path class="cls-7" d="M89,134h16v9H89Z"/>
        <path class="cls-3" d="M94,134h2v9H94Zm-5,3h16v2H89Z"/>
        <path class="cls-5" d="M63,153H79v9H63Z"/>
        <path class="cls-6" d="M68,153h2v9H68Zm-5,3H79v2H63Z"/>
        <path class="cls-9" d="M11,153h6v9H11Z"/>
        <path class="cls-10" d="M17,153H27v9H17Z"/>
        <circle class="cls-6" cx="17.5" cy="157.5" r="2.5"/>
        <path class="cls-10" d="M16.4,158.6a1.658,1.658,0,0,0,2.1,0,.9751.9751,0,0,0,.4-.9V156h-3v1.7"/>
        <path class="cls-7" d="M167,134h16v2H167Zm0,7h16v2H167Z"/>
        <path class="cls-6" d="M167,136h16v5H167Z"/>
        <path class="cls-7" d="M170.4,139.6a1.658,1.658,0,0,0,2.1,0,.9751.9751,0,0,0,.4-.9V137h-3v1.7"/>
        <path class="cls-5" d="M11,134H27v9H11Z"/>
        <path class="cls-3" d="M17.7,134h2.7v9H17.7ZM11,136.9H27V140H11Z"/>
        <path class="cls-3" d="M11,134.8V134h1.6l6.4,3.7,6.5-3.7H27v.8l-6.5,3.7,6.5,3.7v.8H25.5L19,139.3,12.6,143H11v-.8l6.5-3.7Z"/>
        <path class="cls-7" d="M18.2,134h1.7v9H18.2ZM11,137.5H26.8v1.9H11Zm0-3.5v.5l4.5,2.5h1.7L12,134Zm9.8,2.9,5.3-3H27v.5l-4.5,2.5Zm.1,3.1h1.7l4.5,2.5v.5h-1Zm-3.8,0L12,143H11v-.5l4.5-2.5Z"/>
        <path class="cls-11" d="M137,30h13V43H137Z"/>
        <path class="cls-3" d="M149,29H138a2,2,0,0,0-2,2V42a2.006,2.006,0,0,0,2,2h11a2,2,0,0,0,2-2V31A2,2,0,0,0,149,29Zm0,11.6L147.7,42l-4.2-4.2L139.3,42,138,40.6l4.2-4.1L138,32.4l1.3-1.4,4.2,4.2,4.2-4.2,1.3,1.4-4.2,4.1Z"/>
        <path class="cls-11" d="M213.3,9.4l-2.2-.1a5.353,5.353,0,0,0-4.2-5.2c-4.3-1-8.2,3.3-6.4,7.2a5.4349,5.4349,0,0,0,5.1,3.4V13.2a3.8589,3.8589,0,0,1-3.7-2.2c-1.1-2.4.2-6.2,4.6-5.5,2.9.7,3.1,3.9,3.1,3.9h-2.1l2.9,3.6,2.9-3.6Z"/>
        <path class="cls-12" d="M213.3,27.4h-2.2a5.353,5.353,0,0,0-4.2-5.2c-4.3-1-8.2,3.3-6.4,7.2a5.4349,5.4349,0,0,0,5.1,3.4V31.3a3.8589,3.8589,0,0,1-3.7-2.2c-1.1-2.4.2-6.2,4.6-5.5,2.9.7,3.1,3.9,3.1,3.9h-2.1l2.9,3.6,2.9-3.7Z"/>
        <path class="cls-13" d="M200,38h12a2,2,0,0,1,2,2V52a2,2,0,0,1-2,2H200a2,2,0,0,1-2-2V40A2.006,2.006,0,0,1,200,38Z"/>
        <path class="cls-11" d="M213.3,45.4h-2.2a5.353,5.353,0,0,0-4.2-5.2c-4.3-1-8.2,3.3-6.4,7.2a5.4349,5.4349,0,0,0,5.1,3.4V49.3a3.8589,3.8589,0,0,1-3.7-2.2c-1.1-2.4.2-6.2,4.6-5.5,2.9.7,3.1,3.9,3.1,3.9h-2.1l2.9,3.6,2.9-3.7Z"/>
        <circle class="cls-3" cx="142" cy="68" r="9"/>
        <circle class="cls-11" cx="142" cy="68" r="8"/>
        <path class="cls-3" d="M138.9,72l-.9-1,3-2.9L138,65l.9-1,4,4.1Zm6.2,0-4-3.9,4-4.1.9,1-3.1,3.1,3,2.9-.8,1Z"/>
        <path class="cls-14" d="M104,109H97l-3,4.1V118h13v-4.9Zm-3.4-1.7a3.585,3.585,0,0,0,3.6-3.57h0v-.13a3.65,3.65,0,0,0-7.3,0v.1A3.81,3.81,0,0,0,100.6,107.3Z"/>
        <path class="cls-11" d="M125,109h-7l-3,4.1V118h13v-4.9Zm-3.4-1.7a3.585,3.585,0,0,0,3.6-3.57h0v-.13a3.65,3.65,0,0,0-7.3,0v.1A3.81,3.81,0,0,0,121.6,107.3Z"/>
        <path class="cls-3" d="M145,109h-7l-3,4.1V118h13v-4.9Zm-3.4-1.7a3.585,3.585,0,0,0,3.6-3.57h0v-.13a3.65,3.65,0,1,0-7.3,0v.1A3.81,3.81,0,0,0,141.6,107.3Z"/>
        <path class="cls-12" d="M61,72.3a9.6124,9.6124,0,0,1-2.9.8,4.9208,4.9208,0,0,0,2.3-2.8,9.3331,9.3331,0,0,1-3.3,1.2,5.233,5.233,0,0,0-3.7-1.6,5.04,5.04,0,0,0-5,6.1,14.767,14.767,0,0,1-10.6-5.3,4.5141,4.5141,0,0,0-.7,2.5,5.0431,5.0431,0,0,0,2.3,4.2,4.6446,4.6446,0,0,1-2.3-.6v.1a4.941,4.941,0,0,0,4.1,4.9,5.9513,5.9513,0,0,1-2.3.1,5.0421,5.0421,0,0,0,4.8,3.5,10.5494,10.5494,0,0,1-6.4,2.2,4.874,4.874,0,0,1-1.2-.1A14.8306,14.8306,0,0,0,44,89.8,14.385,14.385,0,0,0,58.6,75.7v-.9A11.5077,11.5077,0,0,0,61,72.3Z"/>
        <path class="cls-12" d="M25.9,70H8.1A1.11,1.11,0,0,0,7,71.1V88.8A1.135,1.135,0,0,0,8.0662,90H25.8a1.11,1.11,0,0,0,1.1-1.1V71.1a.9722.9722,0,0,0-1-1.1ZM24,81.2H21.3v7.4H18.5V81.2H16.6V78.6h1.9V76.3c0-1.8,1.1-3.4,3.8-3.4a12.7562,12.7562,0,0,1,1.9.1L24,75.4H22.3a.921.921,0,0,0-1.1.6981l0,.0019v2.3h2.9Z"/>
        <path class="cls-12" d="M116.7,85.6a5.7,5.7,0,0,1-1.1,2.8,4,4,0,0,1-2.9,1.2c-4,.3-10,.3-10,.3s-7.4-.1-9.7-.3a4.717,4.717,0,0,1-3.2-1.2,5.7,5.7,0,0,1-1.1-2.8,35.5209,35.5209,0,0,1-.3-4.6V78.8a35.5209,35.5209,0,0,1,.3-4.6,5.7,5.7,0,0,1,1.1-2.8,4,4,0,0,1,2.9-1.2c4-.3,10-.3,10-.3s6,0,10,.3a4,4,0,0,1,2.9,1.2,5.7,5.7,0,0,1,1.1,2.8,35.5209,35.5209,0,0,1,.3,4.6V81A34.4011,34.4011,0,0,1,116.7,85.6ZM96.8,73.3h-6v1.8h2v11h1.9v-11h2.1Zm4.8,3.3H99.8v7.3a1.5892,1.5892,0,0,1-1,.8c-.2,0-.4-.1-.4-.3V76.5H96.6v7.6a3.1779,3.1779,0,0,0,.2,1.4.973.973,0,0,0,1.1.7A2.47,2.47,0,0,0,99.8,85v1.1h1.8Zm6.6,2.9a12.2532,12.2532,0,0,0-.2-1.9,1.32,1.32,0,0,0-1.4-1.1,2.6531,2.6531,0,0,0-1.8,1.1V73.4H103V86.2h1.7v-1a2.6531,2.6531,0,0,0,1.8,1.1,1.32,1.32,0,0,0,1.4-1.1,12.2532,12.2532,0,0,0,.2-1.9Zm6.4.2a3.2224,3.2224,0,0,0-.6-2.3,2.3338,2.3338,0,0,0-2-1,2.512,2.512,0,0,0-2.1,1,4.6448,4.6448,0,0,0-.6,2.3V83a4.0318,4.0318,0,0,0,.6,2.2,2.5123,2.5123,0,0,0,2.1,1,2.8137,2.8137,0,0,0,2.1-1,2.1126,2.1126,0,0,0,.4-1c0-.4.1-.8.1-1.1v-.3h-1.8V84a.7731.7731,0,0,1-.8.7c-.6,0-.8-.4-.8-1.3V81.7h3.4Zm-3.5-.5c0-.9.2-1.1.8-1.1s.8.3.8,1.2v1h-1.6Zm-5.5,5.5a1.4887,1.4887,0,0,1-.9-.4V78.5a1.086,1.086,0,0,1,.9-.4c.5,0,.7.3.7,1.2v4.1C106.4,84.3,106.1,84.7,105.6,84.7Zm-20.5.4a2.47,2.47,0,0,1-1.9,1.2,1.1259,1.1259,0,0,1-1.1-.7,3.401,3.401,0,0,1-.2-1.4V76.5h1.8v7.8c0,.2.1.4.3.4h.1a1.3749,1.3749,0,0,0,1-.8V76.5h1.8v9.7H85.1Zm-7.2,1.2a2.462,2.462,0,0,1-2-1,4.282,4.282,0,0,1-.6-2.2V79.7a3.2224,3.2224,0,0,1,.6-2.3,2.2481,2.2481,0,0,1,2-.9,2.5181,2.5181,0,0,1,2,.9,4.6446,4.6446,0,0,1,.6,2.3v3.4a3.287,3.287,0,0,1-.5,2.2A2.5119,2.5119,0,0,1,77.9,86.3Zm0-8.2c-.6,0-.9.4-.8,1.4v3.8c-.1,1,.2,1.4.8,1.4s.9-.5.8-1.4V79.5C78.8,78.5,78.5,78.1,77.9,78.1Zm-4.6,8.1H71.4V80.9s-2-6.5-2.4-7.7h2l1.3,5,1.3-5h2l-2.4,7.7Z"/>
        <path class="cls-14" d="M189.7,84l-2.3-2.2a5.0293,5.0293,0,0,0,.8-2.7A5.1,5.1,0,0,0,178,79v.1a5.121,5.121,0,0,0,5.1,5.1,5.3,5.3,0,0,0,2.7-.8l2.2,2.2a1.1511,1.1511,0,0,0,1.626.074.9568.9568,0,0,0,.074-.074A1.2182,1.2182,0,0,0,189.7,84Zm-10.4-4.9a3.8,3.8,0,1,1,3.8,3.8A3.933,3.933,0,0,1,179.3,79.1Z"/>
        <path class="cls-11" d="M189.7,22l-2.3-2.2a5.0287,5.0287,0,0,0,.8-2.7A5.1,5.1,0,1,0,178,17h0v.1a5.121,5.121,0,0,0,5.1,5.1,5.2994,5.2994,0,0,0,2.7-.8l2.2,2.2a1.1511,1.1511,0,0,0,1.626.074.9568.9568,0,0,0,.074-.074A1.2169,1.2169,0,0,0,189.7,22Zm-10.4-4.9a3.8,3.8,0,1,1,3.8,3.8A3.933,3.933,0,0,1,179.3,17.1Z"/>
        <path class="cls-3" d="M189.7,54l-2.3-2.2a5.0287,5.0287,0,0,0,.8-2.7A5.1,5.1,0,1,0,178,49h0v.1a5.121,5.121,0,0,0,5.1,5.1,5.2994,5.2994,0,0,0,2.7-.8l2.2,2.2a1.1511,1.1511,0,0,0,1.626.074.9568.9568,0,0,0,.074-.074A1.2292,1.2292,0,0,0,189.7,54Zm-10.4-4.9a3.8,3.8,0,1,1,3.8,3.8A3.933,3.933,0,0,1,179.3,49.1Z"/>
        <path class="cls-11" d="M167.7,7.6h-1.1V5.1A3.65,3.65,0,0,0,163,2a3.477,3.477,0,0,0-3.5,3.1V7.6h-1a.52.52,0,0,0-.4.2v6.6a.4809.4809,0,0,0,.2.6h9.3a.664.664,0,0,0,.5-.4V8.1C168,7.8,167.9,7.6,167.7,7.6Zm-2.5,0h-4.5V5.3a2.266,2.266,0,0,1,4.5,0Z"/>
        <path class="cls-15" d="M167.7,31.6h-1.1V29.1A3.65,3.65,0,0,0,163,26a3.477,3.477,0,0,0-3.5,3.1v2.5h-1a.52.52,0,0,0-.4.2v6.6a.4809.4809,0,0,0,.2.6h9.3a.664.664,0,0,0,.5-.4V32.1C168,31.8,167.9,31.6,167.7,31.6Zm-2.5,0h-4.5V29.3a2.266,2.266,0,0,1,4.5,0Z"/>
        <path class="cls-3" d="M159,49l4,4,4-4Z"/>
        <path class="cls-11" d="M159,69l4,4,4-4Z"/>
        <path class="cls-11" d="M159,89l4-4,4,4Z"/>
        <path class="cls-3" d="M200,93l1.2-1.1,4.3,3.8,4.3-3.8L211,93l-5.5,4.9Z"/>
        <path class="cls-3" d="M200,79.9l1.2,1.1,4.3-3.8,4.3,3.8,1.2-1.1L205.5,75Z"/>
        <path class="cls-11" d="M200,59l1.2-1.1,4.3,3.8,4.3-3.8L211,59l-5.5,4.9Z"/>
        <path class="cls-3" d="M29.1,47c0-2.9,1.9-3,4.4-3h.3c2.5,0,3.8.4,3.8,3.2v2c0,2.4-.6,3.4-3.9,3.4H33c-3.1,0-4-.9-4-3.2V47Zm0,6.3a4.6292,4.6292,0,0,0,4,1.5H34c3.6,0,6.3-.9,6.3-5.1V47.1c0-3.9-1.7-5.3-6.2-5.3H32.7a4.345,4.345,0,0,0-3.6,1.4V37H26.4V54.5h2.7ZM73.5,42.1H69.8V41a1.985,1.985,0,0,1,1.9-2h3V37H71.1a3.686,3.686,0,0,0-4,3.3v1.8H65.6v2.2h1.5V54.8h2.7V44.3h3.7ZM57.7,50.8A3.8429,3.8429,0,0,0,61,54.9h4.1V52.7H62.4c-1.5,0-2-.8-2-1.8V44.4h3.7V42.2H60.4V37H57.7v5.2H56.2v2.2h1.5Zm31.6-11H92V37H89.2Zm0,15H92v-13H89.3Zm-44.9-8c0-2.5,1.2-2.7,4-2.7H49c3.2,0,3.6.8,3.6,2.4v.7H44.5Zm3,8h2.5c3.3,0,4.8-1.1,5.2-2.9l-2.4-.7c-.4,1.1-1.4,1.4-3.5,1.4h-.6c-3.5,0-4.1-.4-4.1-3.2H55.4V47c0-4.4-2.3-5.2-5.9-5.2H48.2c-2.9,0-6.3.5-6.3,4.9v3.1c-.2,4.3,2.8,5,5.5,5m36.7-3.9c0,1.2-.8,1.7-4.1,1.7h-.7c-2.8,0-3.1-.5-3.1-1.6v-.7c0-1.2.7-1.7,3-1.7h1.2c2.1,0,3.7.4,3.7,1.8Zm-3.4-9.1h-1c-3.7,0-5.3,1.1-5.4,2.9l2.6.9c.1-1.2,1.5-1.5,3.5-1.5,3,0,3.7.2,3.7,2.4v1.2c-.7-.9-1.6-1.2-4-1.2H79c-3.5,0-5.5.9-5.5,3.7V51c0,2.3.9,3.9,4.5,3.9h2.7c2.6,0,2.9-.4,3.4-1.2v1.2h2.7V46.5c0-3.7-2.4-4.7-6.1-4.7m19.7,0a3.5148,3.5148,0,0,0-3.2,1.7H97V41.8H94.4v13h2.7V47a2.8,2.8,0,0,1,2.5847-3H100.2c1.5,0,2.3.4,2.4.8l1.7-1.2c-.4-1.1-1.5-1.8-3.9-1.8M21.3,37H14.2v3.6H10.4l7.3,8.6L25,40.6H21.2ZM1,51.2H4.8v3.6h7.1V51.2h3.8L8.4,42.6Z"/>
        <path class="cls-14" d="M65,123H55a2,2,0,0,1-2-2V101.9a2.0511,2.0511,0,0,1,1.3-1.9H65.8a1.83,1.83,0,0,1,1.2,1.9V121A2.07,2.07,0,0,1,65,123Zm-4.9-1.5a1,1,0,1,0-1-1,.945.945,0,0,0,.8866,1A.9327.9327,0,0,0,60.1,121.5Zm1.4-19.8H58.7v.4h2.8Zm4.2,2H54.4v14.5H65.7Z"/>
        <path class="cls-11" d="M85,123H75a2,2,0,0,1-2-2V101.9a2.0511,2.0511,0,0,1,1.3-1.9H85.8a1.83,1.83,0,0,1,1.2,1.9V121A2.07,2.07,0,0,1,85,123Zm-4.9-1.5a1,1,0,1,0-1-1,.945.945,0,0,0,.8866,1A.9327.9327,0,0,0,80.1,121.5Zm1.4-19.8H78.7v.4h2.8Zm4.2,2H74.4v14.5H85.7Z"/>
        <path class="cls-3" d="M7,116v-8l3,5Z"/>
        <path class="cls-3" d="M20,100H9a2,2,0,0,0-2,2v9a2.006,2.006,0,0,0,2,2H20a2,2,0,0,0,2-2v-9A2,2,0,0,0,20,100Zm-7.8,4.2a2.774,2.774,0,0,1,2.2-2.2,2.586,2.586,0,0,1,2.235,2.8947v0q-.0131.1-.035.205a2.774,2.774,0,0,1-2.2,2.2A2.726,2.726,0,0,1,12.2,104.2ZM10,111a4.1771,4.1771,0,0,1,2.8-3.9,2.477,2.477,0,0,0,3.4,0A4.083,4.083,0,0,1,19,111Z"/>
        <path class="cls-11" d="M30,116v-8l3,5Z"/>
        <path class="cls-11" d="M43,100H32a2,2,0,0,0-2,2v9a2.006,2.006,0,0,0,2,2H43a2,2,0,0,0,2-2v-9A2,2,0,0,0,43,100Zm-7.8,4.2a2.774,2.774,0,0,1,2.2-2.2,2.586,2.586,0,0,1,2.235,2.8947v0q-.013.1-.035.205a2.774,2.774,0,0,1-2.2,2.2A2.726,2.726,0,0,1,35.2,104.2ZM33,111a4.1771,4.1771,0,0,1,2.8-3.9,2.477,2.477,0,0,0,3.4,0A4.083,4.083,0,0,1,42,111Z"/>
        <path class="cls-3" d="M149,5.3,147.7,4l-4.2,4.1L139.3,4,138,5.3l4.2,4.2L138,13.6l1.3,1.4,4.2-4.2,4.2,4.2,1.3-1.4-4.2-4.1Z"/>
        <path class="cls-11" d="M165.4,105.1c-4.9,0-7.9,4.9-7.9,4.9s3,4.9,7.9,4.9c4.6,0,8.1-4.9,8.1-4.9s-3.5-4.9-8.1-4.9m.1,7.7a2.8,2.8,0,1,1-.004-5.6h.004a2.8,2.8,0,0,1,.004,5.6H165.5m0-4.1a1.2,1.2,0,1,0,1.2,1.2h0a1.29,1.29,0,0,0-1.2-1.2m8,1.2s-3.5,4.9-8.1,4.9c-4.9,0-7.9-4.9-7.9-4.9m16,0h-9.2a1.2,1.2,0,1,1,1.2,1.2h0a1.1551,1.1551,0,0,1-1.2-1.108V109.9m1.2-2.8a2.8,2.8,0,1,0-.004,5.6h.004a2.8,2.8,0,0,0,.004-5.6H165.5m-8,2.8s3.1-4.9,7.9-4.9c4.6,0,8.1,4.9,8.1,4.9m-10.8,0a2.818,2.818,0,0,1,2.835-2.8h.065a2.85,2.85,0,1,1-2.9,2.9v-.1m2.7-4.8c-4.9,0-7.9,4.9-7.9,4.9s3,4.9,7.9,4.9c4.6,0,8.1-4.9,8.1-4.9s-3.5-4.9-8.1-4.9m.1,3.6a1.2,1.2,0,1,0,1.2,1.2h0a1.29,1.29,0,0,0-1.2-1.2"/>
        <path class="cls-11" d="M200.2,102.9l1.4,1.4L188.9,117l-1.4-1.4,2.3-2.3,2.1-2.1,8.3-8.3m2.3,7s-3.5,4.9-8.1,4.9a7.7691,7.7691,0,0,1-1.6-.2l1.8-1.8a2.8259,2.8259,0,0,0,2.7-2.7l2.7-2.7a11.8467,11.8467,0,0,1,2.5,2.5m-16,0s3.1-4.9,7.9-4.9a6.9268,6.9268,0,0,1,2,.3l-1.8,1.8h-.1a2.8,2.8,0,0,0-2.8,2.8h0v.1l-2.6,2.6a9.58,9.58,0,0,1-2.6-2.7m1,5.8,2.3-2.3,2.1-2.1,8.3-8.3,1.4,1.4-12.7,12.7-1.4-1.4m-1-5.8s3.1-4.9,7.9-4.9a6.9268,6.9268,0,0,1,2,.3l-1.8,1.8h-.1a2.8,2.8,0,0,0-2.8,2.8h0v.1l-2.6,2.6a9.5784,9.5784,0,0,1-2.6-2.7m16,0s-3.5,4.9-8.1,4.9a7.7691,7.7691,0,0,1-1.6-.2l1.8-1.8a2.8259,2.8259,0,0,0,2.7-2.7l2.7-2.7a11.8467,11.8467,0,0,1,2.5,2.5m-2.3-7-8.3,8.3-2.1,2.1-2.3,2.3,1.4,1.4,12.7-12.7-1.4-1.4m-5.8,2.2c-4.9,0-7.9,4.9-7.9,4.9a16.6858,16.6858,0,0,0,2.5,2.8l2.6-2.6v-.1a2.8,2.8,0,0,1,2.8-2.8h.1l1.8-1.8a3.8073,3.8073,0,0,0-1.9-.4m5.6,2.3-2.7,2.7a2.8261,2.8261,0,0,1-2.7,2.7l-1.8,1.8a8.7484,8.7484,0,0,0,1.6.2c4.6,0,8.1-4.9,8.1-4.9a11.8491,11.8491,0,0,0-2.5-2.5"/>
        <path class="cls-3" d="M223.138,20,221,17.75l6.75-6.637L221,4.25,223.138,2l9,9.113Zm13.725,0-9-8.887,9-9.113L239,4.25l-6.863,6.863,6.75,6.637Z"/>
        <path class="cls-16" d="M231,34h-2V31h-3V29h3V26h2v3h3v2h-3Z"/>
        <path class="cls-16" d="M226,43V41h8v2Z"/>
        <path d="M223.1,69.9l-2.1-2.2l6.8-6.6l-6.8-7l2.1-2.2l9,9.1L223.1,69.9z M236.9,69.9l-9-8.9l9-9.1l2.1,2.2l-6.9,6.9l6.8,6.6L236.9,69.9z"/>
        <path d="M233.4,90.3l-9-8.9l9-9.1l2.1,2.2l-6.9,6.9l6.8,6.6L233.4,90.3z"/>
    </g>
    <g id="flag-no">
        <g>
            <rect class="cls-17" x="115" y="153" width="16" height="9"/>
            <rect class="cls-3" x="119.3636" y="153" width="2.9091" height="9"/>
            <rect class="cls-3" x="115" y="156.2727" width="16" height="2.4545"/>
            <rect class="cls-18" x="120.0909" y="153" width="1.4545" height="9"/>
            <rect class="cls-18" x="115" y="156.8864" width="16" height="1.2273"/>
        </g>
    </g>
    <g id="flag-hu">
        <g>
            <rect class="cls-19" x="141" y="153" width="16" height="9"/>
            <rect class="cls-3" x="141" y="153" width="16" height="6"/>
            <rect class="cls-20" x="141" y="153" width="16" height="3"/>
        </g>
    </g>
    <g id="flag-pl">
        <g>
            <rect class="cls-3" x="167" y="153" width="16" height="9"/>
            <rect class="cls-21" x="167" y="157.5" width="16" height="4.5"/>
        </g>
    </g>
    <g id="flag-lv">
        <g>
            <rect class="cls-22" x="193" y="153" width="16" height="9"/>
            <rect class="cls-3" x="193" y="156.6" width="16" height="1.8"/>
        </g>
    </g>
    <g id="flag-br">
        <g>
            <rect class="cls-23" x="219" y="153" width="16" height="9"/>
            <path class="cls-24" d="M221.6643,157.5,227,160.9071l5.3357-3.4071L227,154.0929Z"/>
            <circle class="cls-25" cx="227" cy="157.5" r="2.25"/>
            <g class="cls-26">
                <path class="cls-3" d="M220.25,162a5.4643,5.4643,0,1,1,10.9286,0h-.3215a5.1429,5.1429,0,1,0-10.2857,0Z"/>
            </g>
        </g>
    </g>
    <g id="flag-ko">
        <g>
            <rect class="cls-3" x="219" y="134" width="16" height="9"/>
            <g>
                <g id="b2">
                    <g>
                        <line x1="222.374" y1="136.8359" x2="223.6501" y2="134.9638"/>
                        <line x1="222.8526" y1="137.1479" x2="224.1287" y2="135.2758"/>
                        <line x1="223.3311" y1="137.4599" x2="224.6072" y2="135.5878"/>
                        <polygon points="223.491 137.564 223.172 137.356 224.448 135.484 224.767 135.692 223.491 137.564"/>
                        <polygon points="223.012 137.252 222.693 137.044 223.969 135.172 224.288 135.38 223.012 137.252"/>
                        <polygon points="222.534 136.94 222.214 136.732 223.491 134.86 223.81 135.068 222.534 136.94"/>
                    </g>
                    <g>
                        <line x1="229.3928" y1="141.4122" x2="230.6689" y2="139.5401"/>
                        <line x1="229.8713" y1="141.7242" x2="231.1474" y2="139.8521"/>
                        <line x1="230.3499" y1="142.0362" x2="231.626" y2="140.1641"/>
                        <polygon points="230.509 142.14 230.19 141.932 231.466 140.06 231.786 140.268 230.509 142.14"/>
                        <polygon points="230.031 141.828 229.712 141.62 230.988 139.748 231.307 139.956 230.031 141.828"/>
                        <polygon points="229.552 141.516 229.233 141.308 230.509 139.436 230.828 139.644 229.552 141.516"/>
                    </g>
                </g>
                <g>
                    <path d="M229.7118,140.2681l1.5952,1.04"/>
                    <polygon class="cls-3" points="231.254 141.386 229.659 140.346 229.765 140.19 231.36 141.23 231.254 141.386"/>
                </g>
                <ellipse class="cls-27" cx="227" cy="138.5" rx="2.3006" ry="2.25"/>
                <path class="cls-28" d="M225.0858,137.2519a1.11,1.11,0,0,0,.319,1.56A1.1662,1.1662,0,0,0,227,138.5a1.1662,1.1662,0,0,1,1.5952-.312,1.11,1.11,0,0,1,.319,1.56,2.3325,2.3325,0,0,1-3.19.624A2.22,2.22,0,0,1,225.0858,137.2519Z"/>
            </g>
            <g>
                <g id="b2-2" data-name="b2">
                    <g>
                        <line x1="223.6501" y1="142.0362" x2="222.374" y2="140.1641"/>
                        <line x1="224.1287" y1="141.7242" x2="222.8526" y2="139.8521"/>
                        <line x1="224.6072" y1="141.4122" x2="223.3311" y2="139.5401"/>
                        <polygon points="223.491 142.14 222.214 140.268 222.534 140.06 223.81 141.932 223.491 142.14"/>
                        <polygon points="223.969 141.828 222.693 139.956 223.012 139.748 224.288 141.62 223.969 141.828"/>
                        <polygon points="224.448 141.516 223.172 139.644 223.491 139.436 224.767 141.308 224.448 141.516"/>
                    </g>
                    <g>
                        <line x1="230.6689" y1="137.4599" x2="229.3928" y2="135.5878"/>
                        <line x1="231.1474" y1="137.1479" x2="229.8713" y2="135.2758"/>
                        <line x1="231.626" y1="136.8359" x2="230.3499" y2="134.9638"/>
                        <polygon points="230.509 137.564 229.233 135.692 229.552 135.484 230.828 137.356 230.509 137.564"/>
                        <polygon points="230.988 137.252 229.712 135.38 230.031 135.172 231.307 137.044 230.988 137.252"/>
                        <polygon points="231.466 136.94 230.19 135.068 230.509 134.86 231.786 136.732 231.466 136.94"/>
                    </g>
                </g>
                <g>
                    <line x1="223.2513" y1="140.9441" x2="223.7299" y2="140.6321"/>
                    <line x1="229.7118" y1="136.7319" x2="230.2701" y2="136.3679"/>
                    <line x1="230.7487" y1="136.0559" x2="231.2272" y2="135.7438"/>
                    <polygon class="cls-3" points="223.305 141.022 223.198 140.866 223.677 140.554 223.783 140.71 223.305 141.022"/>
                    <polygon class="cls-3" points="229.765 136.81 229.659 136.654 230.217 136.29 230.323 136.446 229.765 136.81"/>
                    <polygon class="cls-3" points="230.802 136.134 230.695 135.978 231.174 135.666 231.28 135.822 230.802 136.134"/>
                </g>
            </g>
        </g>
    </g>
    <g id="flag-fi">
        <g>
            <rect class="cls-3" x="11" y="172" width="16" height="9"/>
            <rect class="cls-29" x="11" y="175.2727" width="16" height="2.4545"/>
            <rect class="cls-29" x="15.4444" y="172" width="2.6667" height="9"/>
        </g>
    </g>
    <g id="flag-lt">
        <g>
            <rect class="cls-30" x="89" y="172" width="16" height="9"/>
            <rect class="cls-31" x="89" y="172" width="16" height="6"/>
            <rect class="cls-32" x="89" y="172" width="16" height="3"/>
        </g>
    </g>
    <g id="flag-pa">
        <g>
            <rect class="cls-33" x="115.0439" y="172" width="15.9122" height="9"/>
            <circle class="cls-3" cx="123" cy="176.5" r="2.7"/>
            <circle class="cls-33" cx="123.6902" cy="175.8865" r="2.475"/>
            <polygon class="cls-3" points="123.985 174.48 125.122 175.759 123.45 175.392 125.018 174.706 124.153 176.183 123.985 174.48"/>
        </g>
    </g>
    <g id="flag-is">
        <g>
            <path class="cls-34" d="M141,172h16v9H141"/>
            <path class="cls-3" d="M145.48,172v3.42H141v2.16h4.48V181h2.56v-3.42H157v-2.16h-8.96V172Z"/>
            <path class="cls-35" d="M146.12,172v3.96H141v1.08h5.12V181h1.28v-3.96H157v-1.08h-9.6V172Z"/>
        </g>
    </g>
    <g id="flag-et">
        <g>
            <rect class="cls-3" x="167" y="172" width="16" height="9"/>
            <rect x="167" y="172" width="16" height="6"/>
            <rect class="cls-36" x="167" y="172" width="16" height="3"/>
        </g>
    </g>
    <g id="flag-bn">
        <g>
            <path class="cls-37" d="M193,172h16v9H193Z"/>
            <circle class="cls-38" cx="199.75" cy="176.5" r="3"/>
        </g>
    </g>
    <g id="flag-fr">
        <g>
            <rect class="cls-39" x="219" y="172" width="16" height="9"/>
            <rect class="cls-3" x="219" y="172" width="10.6667" height="9"/>
            <rect class="cls-40" x="219" y="172" width="5.3333" height="9"/>
        </g>
    </g>
    <g id="flag-sk">
        <g>
            <rect class="cls-41" x="11" y="191" width="16" height="9"/>
            <rect class="cls-42" x="11" y="191" width="16" height="6"/>
            <rect class="cls-3" x="11" y="191" width="16" height="3"/>
            <g>
                <path class="cls-3" d="M15.7438,197.9525a3.0123,3.0123,0,0,1-1.9606-2.6855c0-1.5257.0729-2.2195.0729-2.2195h3.7755s.0729.6938.0729,2.2195A3.0122,3.0122,0,0,1,15.7438,197.9525Z"/>
                <path class="cls-41" d="M15.7438,197.75a2.7636,2.7636,0,0,1-1.7987-2.4638c0-1.4.0669-2.0362.0669-2.0362h3.4637s.067.6365.067,2.0362a2.7636,2.7636,0,0,1-1.7989,2.4638Z"/>
                <path class="cls-3" d="M15.9021,194.9193a2.88,2.88,0,0,0,.9395-.1055s-.0091.1246-.0091.27.0091.27.0091.27a3.02,3.02,0,0,0-.9395-.1062v.773h-.3165v-.773a3.0206,3.0206,0,0,0-.94.1062s.0092-.1246.0092-.27-.0092-.27-.0092-.27a2.8812,2.8812,0,0,0,.94.1055v-.4856a2.2223,2.2223,0,0,0-.7435.1067s.0092-.1246.0092-.27-.0092-.27-.0092-.27a2.2223,2.2223,0,0,0,.7427.1067,4.3166,4.3166,0,0,0-.099-.695s.1843.0144.258.0144.2581-.0144.2581-.0144a4.3166,4.3166,0,0,0-.099.695,2.2228,2.2228,0,0,0,.7427-.1068s-.0092.1246-.0092.27.0092.27.0092.27a2.2223,2.2223,0,0,0-.7435-.1067v.4855Z"/>
                <path class="cls-42" d="M15.7437,195.9364c-.3727,0-.5723.517-.5723.517a.4568.4568,0,0,0-.4148-.2451.5851.5851,0,0,0-.4538.3525,3.4185,3.4185,0,0,0,1.4409,1.1892,3.42,3.42,0,0,0,1.4415-1.1892.5852.5852,0,0,0-.4538-.3525.458.458,0,0,0-.4153.2451s-.2-.517-.5724-.517Z"/>
            </g>
        </g>
    </g>
    <g id="flag-id">
        <g>
            <rect class="cls-3" x="37" y="191" width="16" height="9"/>
            <rect class="cls-7" x="37" y="191" width="16" height="4.5"/>
        </g>
    </g>
    <g id="flag-tr">
        <g>
            <rect class="cls-43" x="63" y="191" width="16" height="9"/>
            <circle class="cls-3" cx="67.5" cy="195.5" r="2.25"/>
            <circle class="cls-43" cx="68.0625" cy="195.5" r="1.8"/>
            <polygon class="cls-3" points="69.263 195.5 70.04 195.753 70.04 196.57 70.52 195.909 71.298 196.161 70.817 195.5 71.298 194.839 70.52 195.091 70.04 194.43 70.04 195.247 69.263 195.5"/>
        </g>
    </g>
    <g id="flag-tl">
        <g>
            <rect class="cls-44" x="89" y="190.977" width="16" height="9.023"/>
            <rect class="cls-7" x="89" y="195.4885" width="16" height="4.5115"/>
            <path class="cls-3" d="M96.8142,195.4885,89,200v-9.023"/>
            <path class="cls-6" d="M89.4512,191.7584l.2715.2347.3145-.1731-.1393.3308.2618.2456-.3577-.03-.1526.3248-.0818-.35-.3561-.0448.3071-.1857Z"/>
            <path class="cls-6" d="M95.5655,195.0117l.0073.3589.3391.1179-.3391.1178-.0073.3589-.2169-.286-.3436.1039.2051-.2946-.2051-.2947.3436.104Z"/>
            <path class="cls-6" d="M89.6494,198.2859l.1526.3249.3577-.03-.2618.2455.1393.3309-.3145-.1731-.2715.2347.0674-.3526-.3071-.1858.3561-.0447Z"/>
            <path class="cls-6" d="M91.8072,193.5836l-.1172.1172.0581.8873q-.03.002-.0587.0057l-.1067-.81-.0956.0956.144.7237a.8989.8989,0,0,0-.3253.1348l-.41-.6135h-.1352l.4971.648c-.0156.012-.0307.0246-.0454.0375l-.5865-.6687H90.46v.1657l.6687.5865q-.02.0222-.0375.0456l-.648-.4973v.1353l.6136.41a.8964.8964,0,0,0-.1349.3251l-.7237-.1439-.0956.0956.81.1066q-.0039.0291-.0057.0587l-.8873-.0581-.1172.1172.1172.1171.8873-.0581c.0012.02.0031.0395.0057.0589l-.81.1065.0956.0956.7237-.1439a.895.895,0,0,0,.1348.3252l-.6135.41v.1353l.648-.4972c.012.0156.0245.0307.0375.0455l-.6687.5864v.1658h.1657l.5865-.6688c.0148.013.03.0255.0456.0375l-.4973.6481h.1352l.41-.6137a.8972.8972,0,0,0,.3252.1351l-.144.7236.0956.0956.1067-.81q.0291.0038.0587.0057l-.0581.8873.1172.1171.1171-.1171-.0581-.8873c.02-.0013.0393-.0032.0587-.0057l.1067.81.0956-.0956-.144-.7238a.897.897,0,0,0,.3253-.1347l.41.6134h.1352l-.4971-.648c.0156-.012.0307-.0245.0455-.0375l.5864.6688h.1657V196.67l-.6687-.5864q.02-.0222.0375-.0456l.648.4973V196.4l-.6136-.41a.8971.8971,0,0,0,.1349-.3251l.7237.1439.0956-.0956-.81-.1067c.0026-.0194.0045-.0389.0058-.0587l.8873.0581.1171-.1171-.1171-.1172-.8873.0581q-.002-.03-.0057-.0587l.81-.1066-.0956-.0956-.7237.1439a.895.895,0,0,0-.1348-.3252l.6135-.41v-.1353l-.648.4972c-.012-.0156-.0245-.0307-.0375-.0455l.6687-.5865v-.1657h-.1657l-.5864.6687c-.0148-.0129-.03-.0255-.0456-.0375l.4972-.648h-.1352l-.41.6136a.8986.8986,0,0,0-.3252-.1349l.144-.7237-.0956-.0956-.1067.81c-.0194-.0025-.0389-.0044-.0587-.0057l.0581-.8873Z"/>
        </g>
    </g>
    <g id="flag-ms">
        <g>
            <g>
                <path class="cls-3" d="M115,191h16v9H115Z"/>
                <path class="cls-45" d="M131,195.5H115.5714v-.6428H131Zm0-1.2857H115.5714v-.6429H131Zm0-1.2857H115.5714v-.6429H131Zm0-1.2857H115.5714V191H131Z"/>
                <path class="cls-46" d="M115,191h9v5.4643h-9Z"/>
                <path class="cls-45" d="M131,199.3571H115v-.6428h16Zm0-1.2857H115v-.6428h16Zm0-1.2857H115v-.6428h16Z"/>
            </g>
            <path class="cls-47" d="M120.625,191.9643l.1433.98.5545-.8209-.2974.9455.8558-.5-.6776.7233.9884-.0791-.9241.3576.9241.3576-.9884-.079.6776.7232-.8558-.5.2974.9455-.5545-.821-.1433.98-.1433-.98-.5545.821.2974-.9455-.8559.5.6777-.7232-.9884.079.9241-.3576-.9241-.3576.9884.0791-.6777-.7233.8559.5-.2974-.9455.5545.8209Zm-.8036.04a1.7143,1.7143,0,1,0,0,3.1339,1.9285,1.9285,0,1,1,0-3.1339Z"/>
        </g>
    </g>
    <g id="flag-hr">
        <g>
            <rect class="cls-48" x="141" y="191" width="16" height="9"/>
            <rect class="cls-3" x="141" y="191" width="16" height="6"/>
            <rect class="cls-10" x="141" y="191" width="16" height="3"/>
            <g>
                <g>
                    <path class="cls-10" d="M149.0006,197.8278h0a1.7547,1.7547,0,0,0,1.75-1.75v-2.0789H147.251v2.0789a1.7547,1.7547,0,0,0,1.7495,1.75Z"/>
                    <path class="cls-3" d="M149.0006,197.8h0a1.7211,1.7211,0,0,0,1.7161-1.7161V194.033h-3.4324v2.0506A1.7212,1.7212,0,0,0,149.0006,197.8Z"/>
                    <g>
                        <path class="cls-10" d="M148.0087,194.0975h-.66v.7256h.66Z"/>
                        <path class="cls-10" d="M148.0087,195.5487h.66v-.7256h-.66Z"/>
                        <path class="cls-10" d="M147.3483,196.08a1.6517,1.6517,0,0,0,.0117.1949h.6487v-.7257h-.66Z"/>
                        <path class="cls-10" d="M149.33,195.5487h-.6605v.7257h.6605Z"/>
                        <path class="cls-10" d="M149.33,197h.66v-.7256h-.66Z"/>
                        <path class="cls-10" d="M149.99,197.3969a1.6728,1.6728,0,0,0,.377-.3969h-.377Z"/>
                        <path class="cls-10" d="M148.0088,197h.66v-.7256h-.66Z"/>
                        <path class="cls-10" d="M147.6311,197a1.6716,1.6716,0,0,0,.3777.3973V197Z"/>
                        <path class="cls-10" d="M149.1145,197.7256a1.6409,1.6409,0,0,0,.2152-.0294V197h-.6605v.6963a1.6135,1.6135,0,0,0,.2145.0292,1.9094,1.9094,0,0,0,.2307,0Z"/>
                        <path class="cls-10" d="M150.6383,196.2744a1.6619,1.6619,0,0,0,.0117-.1955v-.53h-.66v.7256Z"/>
                        <path class="cls-10" d="M149.33,195.5487h.66v-.7256h-.66Z"/>
                        <path class="cls-10" d="M149.33,194.0975h-.6605v.7256h.6605Z"/>
                        <path class="cls-10" d="M150.65,194.8231v-.7256h-.66v.7256Z"/>
                    </g>
                </g>
                <g>
                    <path class="cls-3" d="M150.687,193.978l.4095-.9283-.312-.5037-.5169.1913-.3629-.4148-.4782.274L149,192.2473l-.4264.3492-.4782-.274-.363.4148-.5169-.1914-.3121.5039.409.9285a4.1022,4.1022,0,0,1,3.3745,0Z"/>
                    <path class="cls-49" d="M147.7439,192.7783l-.0008.0009-.5126-.19-.2868.4631.11.25.2783.6319a4.127,4.127,0,0,1,.6484-.2243l-.2364-.9316Z"/>
                    <path class="cls-48" d="M148.5781,192.6389l-.0009.0007-.4742-.2718-.3591.4105.2364.9316a4.1107,4.1107,0,0,1,.6772-.1131l-.0794-.9579Z"/>
                    <path class="cls-49" d="M149.4239,192.639l-.001.0006L149,192.2933l-.4219.3456.0794.9579c.113-.0093.2272-.0143.3425-.0143s.2306.005.3441.0145l.08-.958Z"/>
                    <path class="cls-48" d="M150.2581,192.7788l-.0011,0-.36-.4114-.4732.2712-.08.958a4.1091,4.1091,0,0,1,.6772.1133l.2367-.9315Z"/>
                    <path class="cls-49" d="M150.6675,193.9339l.3889-.8814-.2869-.4631-.5115.1894-.2367.9315a4.11,4.11,0,0,1,.6462.2237Z"/>
                </g>
            </g>
        </g>
    </g>
    <g id="flag-th">
        <g>
            <rect class="cls-50" x="167" y="191" width="16" height="9"/>
            <rect class="cls-51" x="167" y="192.5" width="16" height="6"/>
            <rect class="cls-52" x="167" y="194" width="16" height="3"/>
        </g>
    </g>
    <g id="flag-ua">
        <g>
            <rect class="cls-53" x="193" y="191" width="16" height="9"/>
            <rect class="cls-54" x="193" y="195.5" width="16" height="4.5"/>
        </g>
    </g>
    <g id="flag-ja">
        <g>
            <rect class="cls-3" x="37" y="172" width="16" height="9"/>
            <circle class="cls-55" cx="45" cy="176.5" r="2.7"/>
        </g>
    </g>
    <g id="flag-zh">
        <g>
            <rect class="cls-56" x="219" y="191" width="16" height="9"/>
            <path id="s" class="cls-57" d="M221.25,191.9l.7935,2.4422-2.0774-1.5094h2.5678l-2.0774,1.5094Z"/>
            <path id="s-2" data-name="s" class="cls-57" d="M223.6761,191.4859l-.0751.8526-.44-.7339.7877.3349-.8342.192Z"/>
            <path id="s-3" data-name="s" class="cls-57" d="M224.723,192.4867l-.4.7566-.1211-.8473.596.6144-.8433-.1468Z"/>
            <path id="s-4" data-name="s" class="cls-57" d="M224.8227,193.9957l-.674.5276.2352-.823.2935.804-.71-.4779Z"/>
            <path id="s-5" data-name="s" class="cls-57" d="M223.6588,194.6289l-.04.8551-.47-.7151.8009.302-.8254.2264Z"/>
        </g>
    </g>
    <g id="flag-he">
        <g>
            <rect class="cls-3" x="63" y="172" width="16" height="9"/>
            <rect class="cls-58" x="63" y="172.8437" width="16" height="1.4063"/>
            <rect class="cls-58" x="63" y="178.75" width="16" height="1.4063"/>
            <g>
                <polygon id="triangle" class="cls-59" points="71 174.861 69.58 177.32 72.42 177.32 71 174.861"/>
                <path class="cls-58" d="M72.6875,177.4743h-3.375L71,174.5514Zm-2.8391-.3094h2.3033L71,175.17Z"/>
            </g>
            <g>
                <polygon id="triangle-2" data-name="triangle" class="cls-59" points="71 178.139 72.42 175.68 69.58 175.68 71 178.139"/>
                <path class="cls-58" d="M71,178.4486l-1.6875-2.9229h3.375Zm-1.1516-2.6135L71,177.83l1.1517-1.9947Z"/>
            </g>
        </g>
    </g>
    <g id="flag-vi">
        <g>
            <rect class="cls-60" x="219" y="115" width="16" height="9"/>
            <polygon class="cls-61" points="227 116.8 225.397 121.682 229.569 118.667 224.43 118.667 228.589 121.682 227 116.8"/>
        </g>
    </g>
</svg>
